<mxfile host="app.diagrams.net" modified="2024-06-11T17:38:16.485Z" agent="Mozilla/5.0 (Windows NT 10.0; Win64; x64) AppleWebKit/537.36 (KHTML, like Gecko) Chrome/123.0.0.0 Safari/537.36 OPR/109.0.0.0" version="24.5.3" etag="BCxo-AEdHPyWsrumAylJ" type="github">
  <diagram name="Page-1" id="I8EJVW6rwMpZZMn9XziW">
    <mxGraphModel>
      <root>
        <mxCell id="0" />
        <mxCell id="1" parent="0" />
      </root>
    </mxGraphModel>
  </diagram>
</mxfile>
